# xmcd CD database file generated by Grip 3.3.1
# 
# Track frame offsets:
#       150
#       20784
#       36883
#       59108
#       77114
#       103309
#       118404
#       138510
#       161270
#       193116
# 
# Disc length: 3226 seconds
# 
# Revision: 1
# Processed by: cddbd v1.5.2PL0 Copyright (c) Steve Scherf et al.
# Submitted via: Grip 3.3.1
# 
DISCID=960c980a
DTITLE=Göksel Yilmaz ensemble - Gezgin
DYEAR=2014
DGENRE=Jazz
TTITLE0=Mahsus Mahal
TTITLE1=Shat Iskandariya
TTITLE2=Sensiz
TTITLE3=Sessizligin Kuslari
TTITLE4=Gezgin
TTITLE5=Gel Güzelim Kacma Benden
TTITLE6=Gel Gidelim Güzelim
TTITLE7=Sehra
TTITLE8=Tangoriënt
TTITLE9=Hurriya
EXTD=
EXTT0=
EXTT1=
EXTT2=
EXTT3=
EXTT4=
EXTT5=
EXTT6=
EXTT7=
EXTT8=
EXTT9=
PLAYORDER=
